<svg width="60" height="60" viewBox="0 0 60 60" fill="none" xmlns="http://www.w3.org/2000/svg">
<g clip-path="url(#clip0_213_145)">
<path d="M10.6247 0.75C4.74984 0.75 0 5.50031 0 11.3756V48.6244C0 54.4997 4.74984 59.25 10.6247 59.25H49.3753C55.2502 59.25 60 54.4997 60 48.6244V11.3756C60 5.50031 55.2502 0.75 49.3753 0.75H10.6247ZM21.5002 15.6253C23.55 15.6253 25.2502 15.8747 26.6498 16.3997C27.9049 16.8262 29.0493 17.5267 30 18.4505C30.8057 19.2585 31.4282 20.2303 31.8253 21.3C32.2003 22.35 32.3995 23.4248 32.3995 24.5498C32.3995 26.7 31.8998 28.4747 30.8995 29.8748C29.9002 31.2745 28.5005 32.325 26.8753 32.925C25.1752 33.5503 23.3002 33.7748 21.2503 33.7748C20.6503 33.7748 20.2495 33.7748 19.9997 33.75C19.7498 33.7252 19.3997 33.7252 18.9248 33.7252V41.7502C18.9497 41.925 18.825 42.0755 18.6502 42.1003H13.8C13.6003 42.1003 13.5009 41.9995 13.5009 41.7745V16.05C13.5009 15.8752 13.5759 15.7744 13.7508 15.7744C14.1759 15.7744 14.5758 15.7744 15.1505 15.75C15.7505 15.7247 16.3753 15.7256 17.0503 15.7003C17.7253 15.6755 18.4505 15.675 19.2253 15.6502C20.0006 15.6248 20.7502 15.6253 21.5002 15.6253ZM22.058 20.5491C21.9303 20.5466 21.8026 20.5469 21.675 20.55C21.0253 20.55 20.4502 20.5505 19.9748 20.5758C19.4752 20.5505 19.1255 20.5753 18.9506 20.6002V29.0002C19.3003 29.0255 19.6247 29.0498 19.9247 29.0498H21.2503C22.2253 29.0498 23.2003 28.8998 24.1252 28.5998C24.9253 28.3748 25.6252 27.8995 26.175 27.2747C26.7 26.6494 26.9503 25.8 26.9503 24.6998C26.9739 23.9188 26.7746 23.1471 26.3756 22.4752C25.9505 21.8255 25.35 21.3248 24.6248 21.0502C23.8153 20.722 22.9486 20.5664 22.058 20.5491ZM43.0252 21.8255C44.0503 21.8255 45.1003 21.8995 46.125 22.0495C46.875 22.1494 47.5997 22.3505 48.2747 22.6256C48.375 22.6505 48.4748 22.7498 48.5245 22.8497C48.5498 22.9495 48.5752 23.0498 48.5752 23.1497V27.225C48.5756 27.2735 48.5645 27.3215 48.5429 27.3649C48.5212 27.4083 48.4895 27.446 48.4505 27.4748C48.2255 27.525 48.1003 27.525 48.0005 27.4748C47.2505 27.075 46.4498 26.8003 45.5995 26.6255C44.6747 26.4253 43.7498 26.2997 42.8002 26.2997C42.3 26.2744 41.7745 26.3503 41.2997 26.475C40.9744 26.55 40.6997 26.7253 40.5248 26.9752C40.4002 27.1753 40.3252 27.4252 40.3252 27.6502C40.3252 27.8752 40.4255 28.1002 40.5755 28.2998C40.8005 28.575 41.1 28.8005 41.4248 28.9758C42.0045 29.2755 42.5968 29.5503 43.2 29.7994C44.55 30.2494 45.8498 30.8752 47.0498 31.6252C47.8748 32.1502 48.5498 32.8505 49.0247 33.7003C49.4267 34.4977 49.6245 35.3825 49.6003 36.2752C49.6202 37.4568 49.2798 38.6166 48.6244 39.6C47.9272 40.5978 46.9545 41.3709 45.825 41.8247C44.5997 42.3497 43.0997 42.6248 41.2997 42.6248C40.1494 42.6248 39.0253 42.525 37.9003 42.3C37.0186 42.1476 36.161 41.8785 35.3503 41.4998C35.1755 41.4 35.0498 41.2247 35.0747 41.0245V36.675C35.0747 36.6 35.0995 36.4997 35.1745 36.45C35.2495 36.3998 35.3245 36.4256 35.3995 36.4753C36.3626 37.0432 37.4087 37.4566 38.4998 37.7006C39.45 37.9505 40.4503 38.0752 41.4506 38.0752C42.4003 38.0752 43.0753 37.95 43.5253 37.725C43.9252 37.5502 44.1998 37.125 44.1998 36.675C44.1998 36.3253 44.0002 35.9995 43.5998 35.6742C43.2 35.3494 42.375 34.9748 41.1502 34.5C39.8934 34.0572 38.6998 33.4521 37.5998 32.7C36.8166 32.1417 36.1675 31.4158 35.7 30.5752C35.301 29.7856 35.1036 28.9095 35.1253 28.0252C35.1253 26.9503 35.4248 25.9252 35.9747 25.0003C36.5995 24.0005 37.5253 23.2003 38.6006 22.7006C39.7753 22.1006 41.2495 21.8255 43.0252 21.8255Z" fill="#575756"/>
</g>
<defs>
<clipPath id="clip0_213_145">
<rect width="60" height="60" fill="white"/>
</clipPath>
</defs>
</svg>
