<svg width="95" height="47" viewBox="0 0 95 47" fill="none" xmlns="http://www.w3.org/2000/svg">
<circle cx="18" cy="26" r="18" fill="#F3D9CF"/>
<path d="M12.1 40.42C11.644 40.492 11.224 40.528 10.84 40.528C10.456 40.552 9.892 40.468 9.148 40.276C8.764 40.156 8.488 40.012 8.32 39.844C8.176 39.676 7.924 39.364 7.564 38.908C7.3 38.524 7.108 38.164 6.988 37.828C6.892 37.516 6.88 37.264 6.952 37.072C7.024 36.904 7.18 36.856 7.42 36.928C7.492 36.952 7.6 37.024 7.744 37.144C7.912 37.288 8.068 37.456 8.212 37.648C8.548 38.008 8.956 38.248 9.436 38.368C9.916 38.488 10.552 38.5 11.344 38.404C11.68 38.332 12.088 38.224 12.568 38.08C13.048 37.96 13.516 37.804 13.972 37.612C14.428 37.42 14.788 37.228 15.052 37.036C16.324 36.172 17.344 35.488 18.112 34.984C18.88 34.48 19.264 34.228 19.264 34.228C19.312 34.132 19.396 34.06 19.516 34.012C19.66 33.94 19.828 33.868 20.02 33.796C20.164 33.652 20.392 33.424 20.704 33.112C21.04 32.8 21.352 32.488 21.64 32.176C21.952 31.864 22.144 31.684 22.216 31.636C22.264 31.42 22.312 31.252 22.36 31.132C22.408 30.988 22.432 30.844 22.432 30.7C22.624 30.508 22.876 30.112 23.188 29.512C23.524 28.888 23.86 28.204 24.196 27.46C24.532 26.692 24.772 25.996 24.916 25.372C25.252 23.692 25.336 22.276 25.168 21.124C25 19.972 24.652 18.988 24.124 18.172C23.62 17.332 22.984 16.588 22.216 15.94C21.952 15.724 21.58 15.496 21.1 15.256C20.644 14.992 20.164 14.764 19.66 14.572C19.156 14.38 18.712 14.224 18.328 14.104C17.968 13.984 17.752 13.936 17.68 13.96C17.584 13.984 17.38 14.368 17.068 15.112C16.78 15.832 16.432 16.756 16.024 17.884C15.616 19.012 15.172 20.212 14.692 21.484C14.236 22.756 13.804 23.956 13.396 25.084C13.252 25.54 13.096 26.02 12.928 26.524C12.76 27.028 12.616 27.472 12.496 27.856C12.376 28.216 12.316 28.456 12.316 28.576C12.052 28.984 11.836 29.524 11.668 30.196C11.524 30.868 11.356 31.984 11.164 33.544C10.948 34.36 10.792 34.984 10.696 35.416C10.6 35.824 10.504 36.016 10.408 35.992C10.408 35.992 10.396 36.004 10.372 36.028C10.372 36.028 10.336 36.064 10.264 36.136C10.264 36.28 10.168 36.352 9.976 36.352C9.784 36.352 9.556 36.304 9.292 36.208C9.052 36.088 8.86 35.956 8.716 35.812C8.644 35.548 8.596 35.296 8.572 35.056C8.572 34.816 8.668 34.348 8.86 33.652C8.98 33.196 9.124 32.644 9.292 31.996C9.484 31.324 9.688 30.64 9.904 29.944C10.12 29.224 10.324 28.564 10.516 27.964C10.708 27.364 10.852 26.908 10.948 26.596C11.116 26.188 11.356 25.42 11.668 24.292C11.86 23.668 12.052 23.044 12.244 22.42C12.46 21.796 12.664 21.244 12.856 20.764C13.048 20.26 13.18 19.936 13.252 19.792C13.372 19.48 13.552 18.952 13.792 18.208C14.032 17.464 14.344 16.636 14.728 15.724L14.98 14.536L14.584 14.356C14.296 14.452 14.068 14.488 13.9 14.464C13.756 14.416 13.66 14.38 13.612 14.356C13.468 14.404 13.264 14.368 13 14.248C12.736 14.128 12.496 13.972 12.28 13.78C12.088 13.588 11.968 13.42 11.92 13.276C11.872 13.18 11.836 13.06 11.812 12.916C11.812 12.748 11.812 12.664 11.812 12.664C11.836 12.52 12.016 12.388 12.352 12.268C12.688 12.124 13.12 12.004 13.648 11.908C14.2 11.812 14.788 11.752 15.412 11.728C16.06 11.68 16.684 11.68 17.284 11.728C17.908 11.776 18.496 11.908 19.048 12.124C19.6 12.34 20.2 12.568 20.848 12.808C21.616 13.096 22.42 13.6 23.26 14.32C24.124 15.016 24.904 15.844 25.6 16.804C26.32 17.764 26.8 18.772 27.04 19.828C27.112 20.116 27.184 20.524 27.256 21.052C27.328 21.58 27.364 22.096 27.364 22.6C27.388 23.08 27.34 23.392 27.22 23.536C27.172 23.632 27.136 23.752 27.112 23.896C27.112 24.016 27.16 24.1 27.256 24.148C27.232 24.22 27.148 24.496 27.004 24.976C26.86 25.432 26.728 25.828 26.608 26.164C26.56 26.788 26.416 27.436 26.176 28.108C25.936 28.78 25.672 29.416 25.384 30.016C25.096 30.592 24.832 31.084 24.592 31.492C24.496 31.492 24.4 31.516 24.304 31.564C24.232 31.588 24.244 31.612 24.34 31.636C24.34 31.756 24.208 31.984 23.944 32.32C23.848 32.392 23.692 32.572 23.476 32.86C23.284 33.124 23.128 33.304 23.008 33.4C22.984 33.568 22.912 33.712 22.792 33.832C22.672 33.928 22.564 33.976 22.468 33.976C22.468 33.976 22.444 33.976 22.396 33.976C22.372 33.976 22.36 34.024 22.36 34.12C22.168 34.408 21.868 34.756 21.46 35.164C21.052 35.548 20.584 35.956 20.056 36.388C19.552 36.796 19.024 37.18 18.472 37.54C17.944 37.9 17.44 38.176 16.96 38.368C16.72 38.536 16.468 38.668 16.204 38.764C15.94 38.884 15.688 39.004 15.448 39.124C15.328 39.22 15.064 39.352 14.656 39.52C14.248 39.712 13.804 39.892 13.324 40.06C12.868 40.228 12.46 40.348 12.1 40.42ZM29.3358 35.848C29.1438 35.656 28.9998 35.416 28.9038 35.128C28.8318 34.84 28.8078 34.552 28.8318 34.264C28.8558 33.976 28.9158 33.736 29.0118 33.544C29.0118 33.352 29.0358 33.208 29.0838 33.112C29.1558 32.992 29.1798 32.884 29.1558 32.788C29.1318 32.692 29.1558 32.524 29.2278 32.284C29.2998 32.044 29.3718 31.816 29.4438 31.6C29.6118 31.216 29.7918 30.76 29.9838 30.232C30.1758 29.68 30.3558 29.14 30.5238 28.612C30.6918 28.084 30.8358 27.628 30.9558 27.244C31.0758 26.86 31.1478 26.62 31.1718 26.524C31.1718 26.236 31.3638 26.08 31.7478 26.056C32.0358 25.96 32.2518 25.96 32.3958 26.056C32.5398 26.128 32.7318 26.356 32.9718 26.74C33.1638 26.932 33.2358 27.22 33.1878 27.604C33.1398 27.988 32.9838 28.468 32.7198 29.044C32.6238 29.236 32.5038 29.512 32.3598 29.872C32.2398 30.232 32.1558 30.556 32.1078 30.844C32.0118 31.036 31.8918 31.312 31.7478 31.672C31.6278 32.008 31.5198 32.332 31.4238 32.644C31.3758 32.764 31.3278 32.944 31.2798 33.184C31.2318 33.4 31.1718 33.64 31.0998 33.904C31.0278 34.144 30.9318 34.36 30.8118 34.552C30.5958 35.536 30.3918 36.112 30.1998 36.28C30.0318 36.448 29.7438 36.304 29.3358 35.848ZM32.8278 21.232C32.7078 21.112 32.5998 20.944 32.5038 20.728C32.4078 20.488 32.3478 20.272 32.3238 20.08C32.2998 19.864 32.3238 19.756 32.3958 19.756C32.5878 19.732 32.8158 19.528 33.0798 19.144C33.3438 18.76 33.4518 18.424 33.4038 18.136C33.4038 18.04 33.4398 17.956 33.5118 17.884C33.5838 17.788 33.6678 17.728 33.7638 17.704C34.0518 17.512 34.3278 17.488 34.5918 17.632C34.8798 17.752 35.1438 18.004 35.3838 18.388C35.5998 18.844 35.6598 19.228 35.5638 19.54C35.4678 19.828 35.2038 20.236 34.7718 20.764C34.4118 21.244 34.0758 21.508 33.7638 21.556C33.4758 21.604 33.1638 21.496 32.8278 21.232ZM38.7147 35.956C38.5227 36.004 38.2707 36.028 37.9587 36.028C37.6467 36.004 37.3707 35.968 37.1307 35.92C36.9147 35.848 36.8067 35.776 36.8067 35.704C36.8067 35.584 36.7467 35.524 36.6267 35.524C36.6267 35.524 36.5667 35.476 36.4467 35.38C36.3507 35.284 36.1947 35.188 35.9787 35.092C35.7627 34.756 35.6547 34.396 35.6547 34.012C35.6547 33.604 35.7627 32.968 35.9787 32.104C36.0507 31.504 36.2787 30.808 36.6627 30.016C37.0707 29.2 37.5627 28.372 38.1387 27.532C38.7147 26.692 39.3147 25.936 39.9387 25.264C40.5867 24.592 41.1747 24.1 41.7027 23.788C42.0387 23.452 42.4467 23.272 42.9267 23.248C43.4067 23.224 43.8627 23.332 44.2947 23.572C44.5347 23.692 44.7747 23.884 45.0147 24.148C45.2547 24.412 45.4827 24.7 45.6987 25.012C45.9147 25.324 46.0947 25.636 46.2387 25.948C46.3107 26.212 46.3467 26.452 46.3467 26.668C46.3707 26.86 46.3707 27.1 46.3467 27.388C46.3467 27.676 46.3107 28.108 46.2387 28.684C46.1187 29.116 46.0107 29.644 45.9147 30.268C45.8427 30.892 45.8067 31.432 45.8067 31.888C45.7587 32.344 45.8067 32.668 45.9507 32.86C46.1187 33.052 46.3587 33.064 46.6707 32.896C46.9587 32.752 47.2347 32.692 47.4987 32.716C47.7627 32.716 47.9667 32.788 48.1107 32.932C48.2787 33.076 48.3627 33.292 48.3627 33.58C48.3627 33.868 48.2187 34.168 47.9307 34.48C47.6667 34.768 47.3307 35.02 46.9227 35.236C46.5387 35.428 46.1667 35.524 45.8067 35.524C45.5427 35.524 45.2907 35.368 45.0507 35.056C44.8107 34.72 44.5947 34.324 44.4027 33.868C44.2347 33.388 44.0787 32.932 43.9347 32.5L43.7187 31.672L42.1707 33.148C41.8587 33.484 41.5467 33.796 41.2347 34.084C40.9467 34.348 40.7667 34.54 40.6947 34.66C40.5747 34.876 40.3467 35.092 40.0107 35.308C39.6987 35.524 39.2667 35.74 38.7147 35.956ZM38.8227 33.832C39.2307 33.592 39.6987 33.244 40.2267 32.788C40.7547 32.308 41.2707 31.792 41.7747 31.24C42.2787 30.664 42.6987 30.136 43.0347 29.656C43.4427 29.104 43.7547 28.588 43.9707 28.108C44.1867 27.628 44.3427 27.172 44.4387 26.74C44.3427 26.476 44.1867 26.2 43.9707 25.912C43.7547 25.6 43.5627 25.432 43.3947 25.408C42.8667 25.408 42.3027 25.744 41.7027 26.416C41.1267 27.064 40.5627 27.772 40.0107 28.54C39.9147 28.66 39.7827 28.852 39.6147 29.116C39.4467 29.38 39.2787 29.632 39.1107 29.872C38.9667 30.088 38.8707 30.232 38.8227 30.304C38.7507 30.4 38.6067 30.676 38.3907 31.132C38.1987 31.564 38.0067 32.008 37.8147 32.464C37.6227 32.896 37.5267 33.184 37.5267 33.328C37.5267 33.472 37.5387 33.628 37.5627 33.796C37.6107 33.964 37.7307 34.072 37.9227 34.12C38.1147 34.168 38.4147 34.072 38.8227 33.832ZM62.8479 35.344C62.3679 35.344 61.9719 35.248 61.6599 35.056C61.3479 34.84 61.0839 34.492 60.8679 34.012C60.7719 33.676 60.6879 33.304 60.6159 32.896C60.5679 32.464 60.5439 32.068 60.5439 31.708C60.5439 31.324 60.5799 31.072 60.6519 30.952C60.7479 30.856 60.7839 30.688 60.7599 30.448C60.7599 30.184 60.7599 29.908 60.7599 29.62C60.7359 29.14 60.6159 28.876 60.3999 28.828C60.2079 28.756 59.9199 28.828 59.5359 29.044C59.1039 29.308 58.5399 29.668 57.8439 30.124C57.1479 30.556 56.4159 31.036 55.6479 31.564C54.9039 32.092 54.1959 32.644 53.5239 33.22C52.9959 33.796 52.6719 34.24 52.5519 34.552C52.4559 34.84 52.3119 34.984 52.1199 34.984C51.9279 35.08 51.7599 35.092 51.6159 35.02C51.4959 34.924 51.3159 34.78 51.0759 34.588C50.9079 34.396 50.7399 34.216 50.5719 34.048C50.4039 33.856 50.2959 33.712 50.2479 33.616C50.2479 33.496 50.2839 33.244 50.3559 32.86C50.4279 32.476 50.5119 32.092 50.6079 31.708C50.7279 31.324 50.8119 31.072 50.8599 30.952C50.9799 30.952 51.0759 30.832 51.1479 30.592C51.2439 30.352 51.3879 30.088 51.5799 29.8C51.6279 29.512 51.7479 29.128 51.9399 28.648C52.1559 28.144 52.3479 27.7 52.5159 27.316C52.8519 26.74 53.0799 26.26 53.1999 25.876C53.3439 25.492 53.4399 25.012 53.4879 24.436C53.4639 24.34 53.4879 24.256 53.5599 24.184C53.6319 24.088 53.7159 24.04 53.8119 24.04C54.0039 23.848 54.2319 23.8 54.4959 23.896C54.7599 23.968 54.9999 24.148 55.2159 24.436C55.6479 25.012 55.8159 25.612 55.7199 26.236C55.6479 26.836 55.2639 27.7 54.5679 28.828C54.3999 29.212 54.2679 29.512 54.1719 29.728C54.0999 29.92 54.0639 30.076 54.0639 30.196C54.0639 30.196 54.1839 30.112 54.4239 29.944C54.6879 29.776 54.9759 29.584 55.2879 29.368C55.6239 29.128 55.8879 28.948 56.0799 28.828C56.1999 28.708 56.4759 28.492 56.9079 28.18C57.3399 27.868 57.7959 27.568 58.2759 27.28C58.7799 26.968 59.1519 26.788 59.3919 26.74C59.5839 26.644 59.7879 26.56 60.0039 26.488C60.2199 26.392 60.3759 26.344 60.4719 26.344C60.6639 26.344 60.9039 26.452 61.1919 26.668C61.5039 26.86 61.7919 27.1 62.0559 27.388C62.3199 27.652 62.4759 27.88 62.5239 28.072C62.5239 28.168 62.5239 28.264 62.5239 28.36C62.5479 28.456 62.5719 28.552 62.5959 28.648C62.6919 28.96 62.7399 29.38 62.7399 29.908C62.7639 30.436 62.7519 30.916 62.7039 31.348C62.6559 31.78 62.5719 32.032 62.4519 32.104C62.4519 32.104 62.4519 32.14 62.4519 32.212C62.4759 32.26 62.5359 32.284 62.6319 32.284C62.6319 32.38 62.6319 32.44 62.6319 32.464C62.5119 32.464 62.4639 32.572 62.4879 32.788C62.5119 32.98 62.5839 33.196 62.7039 33.436C62.8479 33.676 62.9919 33.868 63.1359 34.012C63.4239 34.3 63.5439 34.576 63.4959 34.84C63.4479 35.08 63.2319 35.248 62.8479 35.344ZM74.8389 25.736L73.4309 27.432C73.0149 26.44 72.0549 24.616 71.1909 23.048V39.432H69.0149V23.944C67.9589 27.464 66.5509 30.856 65.1109 32.968C64.8549 32.296 64.2789 31.24 63.8309 30.664C65.8469 28.008 67.8309 22.952 68.7909 18.6H64.3749V16.36H69.0149V10.216H71.1909V16.36H74.7429V18.6H71.1909V20.136C72.0549 21.352 74.3269 24.84 74.8389 25.736ZM80.1509 33.544L82.0389 35.048C79.8629 36.52 77.0149 38.248 74.9669 39.496C74.6789 38.984 74.1349 38.248 73.7189 37.768C75.7029 36.616 78.5189 34.856 80.1509 33.544ZM93.0789 37.736L91.6069 39.464C90.2309 38.28 87.4789 36.296 85.3669 34.952L86.7429 33.48C88.8229 34.76 91.6389 36.584 93.0789 37.736ZM78.4869 31.4H88.3109V29.256H78.4869V31.4ZM88.3109 18.952H78.4869V21H88.3109V18.952ZM88.3109 24.328V22.44H78.4869V24.328H88.3109ZM78.4869 25.8V27.784H88.3109V25.8H78.4869ZM93.3349 31.4V33.48H73.6549V31.4H76.3749V17.288H81.2069C81.3669 16.648 81.4949 15.976 81.6549 15.272H74.9669V13.288H82.0069C82.1989 12.232 82.3589 11.176 82.4549 10.28L84.9509 10.44C84.7589 11.336 84.5349 12.328 84.3109 13.288H92.3109V15.272H83.8629C83.7029 16.008 83.5109 16.648 83.3189 17.288H90.5189V31.4H93.3349Z" fill="#B07F6B"/>
</svg>
