<svg width="40" height="40" viewBox="0 0 40 40" fill="none" xmlns="http://www.w3.org/2000/svg">
<path d="M20 5C11.73 5 5 11.7283 5 20C5 28.2717 11.73 35 20 35C28.27 35 35 28.2717 35 20C35 11.7283 28.27 5 20 5ZM31.6033 18.7917C28.7135 18.3181 25.756 18.467 22.9283 19.2283C22.6283 18.5017 22.29 17.7967 21.945 17.09C24.3529 15.7131 26.4578 13.8639 28.1333 11.6533C30.0913 13.5523 31.3195 16.0789 31.6033 18.7917ZM26.8833 10.6017C25.3494 12.6366 23.4217 14.3421 21.215 15.6167C19.9005 13.2033 18.3322 10.9372 16.5367 8.85667C18.277 8.31363 20.1209 8.18863 21.9187 8.49182C23.7164 8.79502 25.4173 9.51786 26.8833 10.6017ZM14.9117 9.51833C16.7729 11.6158 18.3899 13.9177 19.7317 16.38C16.2383 18.0033 12.3339 18.5259 8.53667 17.8783C8.87229 16.0837 9.62377 14.3927 10.7309 12.9409C11.8379 11.4891 13.2698 10.3169 14.9117 9.51833ZM8.33333 20L8.35833 19.51C9.485 19.695 10.6133 19.8233 11.7317 19.8233C14.7508 19.8104 17.7303 19.1351 20.46 17.845C20.7633 18.4667 21.0683 19.085 21.335 19.7233C17.193 21.1986 13.6305 23.9582 11.1667 27.6C9.3395 25.4895 8.33367 22.7915 8.33333 20ZM12.3217 28.7617C14.6359 25.3002 18.0049 22.6776 21.9283 21.2833C23.0739 24.3831 23.7981 27.6225 24.0817 30.915C22.7776 31.4096 21.3947 31.6643 20 31.6667C17.172 31.6667 14.4414 30.6336 12.3217 28.7617ZM25.6783 30.1817C25.3539 26.9752 24.6299 23.8219 23.5233 20.795C26.175 20.1054 28.9444 19.9974 31.6417 20.4783C31.5601 22.4706 30.9692 24.4087 29.9251 26.1075C28.8811 27.8063 27.419 29.209 25.6783 30.1817Z" fill="#B07F6B"/>
</svg>
